<?xml version="1.0" encoding="UTF-8" standalone="no"?>
<!DOCTYPE svg PUBLIC "-//W3C//DTD SVG 1.1//EN" "http://www.w3.org/Graphics/SVG/1.1/DTD/svg11.dtd">
<svg width="100%" height="100%" viewBox="0 0 512 512" version="1.1" xmlns="http://www.w3.org/2000/svg" xmlns:xlink="http://www.w3.org/1999/xlink" xml:space="preserve" xmlns:serif="http://www.serif.com/" style="fill-rule:evenodd;clip-rule:evenodd;stroke-linejoin:round;stroke-miterlimit:2;">
    <g transform="matrix(1,0,0,1,-1253,0)">
        <g transform="matrix(0.985148,0,0,0.985148,-363.628,0)">
            <rect id="Favicon" x="1641" y="0" width="519.719" height="519.719" style="fill:none;"/>
            <clipPath id="_clip1">
                <rect id="Favicon1" serif:id="Favicon" x="1641" y="0" width="519.719" height="519.719"/>
            </clipPath>
            <g clip-path="url(#_clip1)">
                <g transform="matrix(1.01508,0,0,1.01508,369.11,0)">
                    <path d="M1765,181.627L1765,330.373C1765,430.615 1683.62,512 1583.37,512L1434.63,512C1334.38,512 1253,430.615 1253,330.373L1253,181.627C1253,81.385 1334.38,0 1434.63,0L1583.37,0C1683.62,0 1765,81.385 1765,181.627Z" style="fill:rgb(20,24,46);"/>
                </g>
                <g transform="matrix(1.01508,0,0,1.01508,369.11,0)">
                    <path d="M1424.8,348.169C1400.76,328.164 1387.98,296.949 1387.98,256C1387.98,180.437 1431.48,138.02 1509,138.02C1521.65,138.02 1533.39,139.15 1544.19,141.369L1517.93,186.849C1515.09,186.507 1512.11,186.336 1509,186.336C1472.52,186.336 1453.93,209.932 1453.93,256C1453.93,269.131 1455.44,280.437 1458.44,289.89L1424.8,348.169ZM1592.56,163.298C1617.02,183.28 1630.02,214.686 1630.02,256C1630.02,331.563 1586.52,373.98 1509,373.98C1496.02,373.98 1483.99,372.79 1472.96,370.454L1499.18,325.038C1502.29,325.455 1505.57,325.664 1509,325.664C1545.48,325.664 1564.07,302.068 1564.07,256C1564.07,242.376 1562.45,230.718 1559.21,221.054L1592.56,163.298Z" style="fill:rgb(195,214,255);"/>
                </g>
            </g>
        </g>
    </g>
</svg>
