<?xml version="1.0" encoding="UTF-8" standalone="no"?>
<!DOCTYPE svg PUBLIC "-//W3C//DTD SVG 1.1//EN" "http://www.w3.org/Graphics/SVG/1.1/DTD/svg11.dtd">
<svg width="100%" height="100%" viewBox="0 0 512 512" version="1.1" xmlns="http://www.w3.org/2000/svg" xmlns:xlink="http://www.w3.org/1999/xlink" xml:space="preserve" xmlns:serif="http://www.serif.com/" style="fill-rule:evenodd;clip-rule:evenodd;stroke-linejoin:round;stroke-miterlimit:2;">
    <g transform="matrix(1.024,0,0,1.024,283.648,-145.408)">
        <rect id="Artboard1" x="-277" y="142" width="500" height="500" style="fill:none;"/>
        <clipPath id="_clip1">
            <rect id="Artboard11" serif:id="Artboard1" x="-277" y="142" width="500" height="500"/>
        </clipPath>
        <g clip-path="url(#_clip1)">
            <g>
                <g transform="matrix(1,0,0,1,-277,142)">
                    <path d="M500,174.698C500,78.28 421.72,0 325.302,0L174.698,0C78.28,0 0,78.28 0,174.698L0,325.302C0,421.72 78.28,500 174.698,500L325.302,500C421.72,500 500,421.72 500,325.302L500,174.698Z"/>
                </g>
                <g transform="matrix(1,0,0,1,-277,142)">
                    <path d="M350.371,164.781L314.946,335.219L289.94,335.219L201.586,201.398L199.502,201.398L171.579,335.219L145.739,335.219L181.165,164.781L206.17,164.781L294.941,298.935L297.025,298.935L324.949,164.781L350.371,164.781Z" style="fill:white;"/>
                </g>
            </g>
        </g>
    </g>
</svg>
