<?xml version="1.0" encoding="UTF-8" standalone="no"?>
<!DOCTYPE svg PUBLIC "-//W3C//DTD SVG 1.1//EN" "http://www.w3.org/Graphics/SVG/1.1/DTD/svg11.dtd">
<svg width="100%" height="100%" viewBox="0 0 512 512" version="1.1" xmlns="http://www.w3.org/2000/svg" xmlns:xlink="http://www.w3.org/1999/xlink" xml:space="preserve" xmlns:serif="http://www.serif.com/" style="fill-rule:evenodd;clip-rule:evenodd;stroke-linejoin:round;stroke-miterlimit:2;">
    <g transform="matrix(1,0,0,1,0,-164)">
        <g id="Favicon---Ombra-Framework" serif:id="Favicon - Ombra Framework" transform="matrix(0.985148,0,0,0.985148,-1616.63,164)">
            <rect x="1641" y="0" width="519.719" height="519.719" style="fill:none;"/>
            <clipPath id="_clip1">
                <rect x="1641" y="0" width="519.719" height="519.719"/>
            </clipPath>
            <g clip-path="url(#_clip1)">
                <g transform="matrix(1.01508,4.40219e-19,-4.40219e-19,1.01508,59.5121,-1668.78)">
                    <path d="M2070,1794C2070,1711.21 2002.79,1644 1920,1644L1708,1644C1625.21,1644 1558,1711.21 1558,1794L1558,2006C1558,2088.79 1625.21,2156 1708,2156L1920,2156C2002.79,2156 2070,2088.79 2070,2006L2070,1794Z"/>
                    <path d="M2070,1794L2070,2006C2070,2088.79 2002.79,2156 1920,2156L1708,2156C1625.21,2156 1558,2088.79 1558,2006L1558,1794C1558,1711.21 1625.21,1644 1708,1644L1920,1644C2002.79,1644 2070,1711.21 2070,1794ZM2050,1794C2050,1722.25 1991.75,1664 1920,1664L1708,1664C1636.25,1664 1578,1722.25 1578,1794L1578,2006C1578,2077.75 1636.25,2136 1708,2136L1920,2136C1991.75,2136 2050,2077.75 2050,2006L2050,1794Z"/>
                </g>
                <g transform="matrix(0.93577,0.00228774,-0.00228774,0.93577,208.732,-1522.25)">
                    <path d="M2070,1785.02L2070,2014.98C2070,2092.81 2006.81,2156 1928.98,2156L1699.02,2156C1621.19,2156 1558,2092.81 1558,2014.98L1558,1785.02C1558,1707.19 1621.19,1644 1699.02,1644L1928.98,1644C2006.81,1644 2070,1707.19 2070,1785.02ZM2048.3,1785.02C2048.3,1719.16 1994.84,1665.69 1928.98,1665.69L1699.02,1665.69C1633.16,1665.69 1579.69,1719.16 1579.69,1785.02L1579.69,2014.98C1579.69,2080.84 1633.16,2134.3 1699.02,2134.3L1928.98,2134.3C1994.84,2134.3 2048.3,2080.84 2048.3,2014.98L2048.3,1785.02Z" style="fill:white;"/>
                </g>
                <g transform="matrix(1.10001,0,0,1.10049,-120.91,-1878.93)">
                    <g transform="matrix(1.20052,0,-0.0699268,1,-200.531,0)">
                        <g transform="matrix(360.28,0,0,360.28,1904.7,2047.28)">
                        </g>
                        <text x="1714px" y="2047.29px" style="font-family:'CrimsonPro-Black', 'Crimson Pro';font-weight:900;font-size:360.28px;fill:white;">S</text>
                    </g>
                </g>
            </g>
        </g>
    </g>
</svg>
