<?xml version="1.0" encoding="UTF-8" standalone="no"?>
<!DOCTYPE svg PUBLIC "-//W3C//DTD SVG 1.1//EN" "http://www.w3.org/Graphics/SVG/1.1/DTD/svg11.dtd">
<svg width="100%" height="100%" viewBox="0 0 512 512" version="1.1" xmlns="http://www.w3.org/2000/svg" xmlns:xlink="http://www.w3.org/1999/xlink" xml:space="preserve" xmlns:serif="http://www.serif.com/" style="fill-rule:evenodd;clip-rule:evenodd;stroke-linejoin:round;stroke-miterlimit:2;">
    <g transform="matrix(1,0,0,1,-1221,-2142.96)">
        <g transform="matrix(0.985148,0,0,0.985148,-395.628,2142.96)">
            <rect id="Favicon---Ombra-Framework" serif:id="Favicon - Ombra Framework" x="1641" y="0" width="519.719" height="519.719" style="fill:none;"/>
            <clipPath id="_clip1">
                <rect id="Favicon---Ombra-Framework1" serif:id="Favicon - Ombra Framework" x="1641" y="0" width="519.719" height="519.719"/>
            </clipPath>
            <g clip-path="url(#_clip1)">
                <g transform="matrix(1.01508,0,0,1.01508,401.593,-2175.26)">
                    <path d="M1733,2293.07C1733,2253.26 1717.18,2215.08 1689.03,2186.93C1660.88,2158.77 1622.7,2142.96 1582.88,2142.96L1371.12,2142.96C1331.3,2142.96 1293.12,2158.77 1264.97,2186.93C1236.82,2215.08 1221,2253.26 1221,2293.07L1221,2504.84C1221,2544.66 1236.82,2582.84 1264.97,2610.99C1293.12,2639.14 1331.3,2654.96 1371.12,2654.96L1582.88,2654.96C1622.7,2654.96 1660.88,2639.14 1689.03,2610.99C1717.18,2582.84 1733,2544.66 1733,2504.84L1733,2293.07Z" style="fill:white;"/>
                    <path d="M1733,2293.07L1733,2504.84C1733,2544.66 1717.18,2582.84 1689.03,2610.99C1660.88,2639.14 1622.7,2654.96 1582.88,2654.96L1371.12,2654.96C1331.3,2654.96 1293.12,2639.14 1264.97,2610.99C1236.82,2582.84 1221,2544.66 1221,2504.84L1221,2293.07C1221,2253.26 1236.82,2215.08 1264.97,2186.93C1293.12,2158.77 1331.3,2142.96 1371.12,2142.96L1582.88,2142.96C1622.7,2142.96 1660.88,2158.77 1689.03,2186.93C1717.18,2215.08 1733,2253.26 1733,2293.07ZM1703,2293.07C1703,2261.22 1690.35,2230.66 1667.82,2208.14C1645.29,2185.61 1614.74,2172.96 1582.88,2172.96L1371.12,2172.96C1339.26,2172.96 1308.71,2185.61 1286.18,2208.14C1263.65,2230.66 1251,2261.22 1251,2293.07L1251,2504.84C1251,2536.7 1263.65,2567.25 1286.18,2589.78C1308.71,2612.3 1339.26,2624.96 1371.12,2624.96L1582.88,2624.96C1614.74,2624.96 1645.29,2612.3 1667.82,2589.78C1690.35,2567.25 1703,2536.7 1703,2504.84L1703,2293.07Z" style="fill:rgb(15,15,13);"/>
                </g>
                <g transform="matrix(1.07043,0,0,1.07043,319.841,-2308.05)">
                    <path d="M1460.09,2527.33C1436.42,2527.33 1403.04,2519.73 1380.21,2507.06L1378.52,2439.92L1411.49,2438.23L1427.13,2485.53C1436,2491.44 1452.06,2495.66 1465.17,2495.66C1488.41,2495.66 1499.82,2486.37 1499.82,2470.75C1499.82,2414.58 1378.94,2440.34 1378.94,2351.24C1378.94,2303.1 1423.32,2270.58 1491.79,2270.58C1509.54,2270.58 1539.13,2276.07 1555.19,2283.25L1561.53,2350.39L1529.41,2352.08L1514.62,2306.9C1506.59,2303.52 1497.71,2301.83 1487.57,2301.83C1468.97,2301.83 1452.49,2311.55 1452.49,2331.81C1452.49,2383.76 1575.48,2365.6 1575.48,2448.79C1575.48,2494.39 1529.83,2527.33 1460.09,2527.33Z" style="fill:rgb(15,15,13);"/>
                </g>
            </g>
        </g>
    </g>
</svg>
